<?xml version="1.0" encoding="utf-8"?>
<!-- Generator: Adobe Illustrator 27.0.0, SVG Export Plug-In . SVG Version: 6.00 Build 0)  -->
<svg version="1.1" id="圖層_1" xmlns="http://www.w3.org/2000/svg" xmlns:xlink="http://www.w3.org/1999/xlink" x="0px" y="0px"
	 viewBox="0 0 45 45" style="enable-background:new 0 0 45 45;" xml:space="preserve">
<style type="text/css">
	.st0{fill:#FFFFFF;}
</style>
<g>
	<g>
		<path class="st0" d="M22.5,0C10.1,0,0,10.1,0,22.5S10.1,45,22.5,45S45,34.9,45,22.5S34.9,0,22.5,0z M34.5,24H24v10.4
			c0,0.9-0.7,1.6-1.5,1.6S21,35.3,21,34.5V24H10.5C9.7,24,9,23.3,9,22.5S9.7,21,10.5,21H21V10.5C21,9.7,21.7,9,22.5,9
			S24,9.7,24,10.5V21h10.4c0.8,0,1.5,0.7,1.5,1.5S35.3,24,34.5,24z"/>
	</g>
</g>
</svg>
